<svg xmlns="http://www.w3.org/2000/svg" xmlns:xlink="http://www.w3.org/1999/xlink" width="500" zoomAndPan="magnify" viewBox="0 0 375 374.999991" height="500" preserveAspectRatio="xMidYMid meet" version="1.0"><defs><g/><clipPath id="d7e8a78cf3"><path d="M 135 110 L 144.832031 110 L 144.832031 120 L 135 120 Z M 135 110 " clip-rule="nonzero"/></clipPath><clipPath id="ca8f736016"><path d="M 130 102.4375 L 135 102.4375 L 135 107 L 130 107 Z M 130 102.4375 " clip-rule="nonzero"/></clipPath><clipPath id="518cede2e7"><path d="M 57.933594 202 L 67 202 L 67 212 L 57.933594 212 Z M 57.933594 202 " clip-rule="nonzero"/></clipPath><clipPath id="6ef4d5868e"><path d="M 68 215 L 73 215 L 73 219.4375 L 68 219.4375 Z M 68 215 " clip-rule="nonzero"/></clipPath></defs><path fill="#ffffff" d="M 119.234375 125.421875 L 115.847656 125.421875 L 115.847656 122.359375 C 114.644531 121.738281 113.28125 121.382812 111.839844 121.382812 C 106.996094 121.382812 103.046875 125.34375 103.046875 130.171875 L 103.046875 191.5 C 103.046875 196.328125 106.996094 200.292969 111.839844 200.292969 C 116.464844 200.292969 120.289062 196.671875 120.609375 192.121094 C 121.652344 192.476562 122.765625 192.675781 123.929688 192.675781 C 129.523438 192.675781 134.054688 188.144531 134.054688 182.550781 C 134.054688 181.527344 133.910156 180.554688 133.632812 179.621094 C 139.058594 177.632812 142.933594 172.402344 142.933594 166.285156 C 142.933594 162.753906 141.644531 159.523438 139.527344 157.039062 C 140.59375 155.375 141.203125 153.386719 141.203125 151.253906 C 141.203125 146.390625 137.984375 142.285156 133.566406 140.929688 L 125.230469 140.929688 L 125.230469 130.25 L 128.589844 130.25 C 125.082031 125.222656 120.6875 125.480469 119.234375 125.421875 Z M 118.632812 145.636719 L 112.824219 145.636719 L 112.824219 151.453125 L 118.632812 151.453125 Z M 129.933594 144.628906 L 124.125 144.628906 L 124.125 150.4375 L 129.933594 150.4375 Z M 120.953125 138.703125 L 117.253906 138.703125 L 117.253906 142.386719 L 120.953125 142.386719 Z M 115.378906 133.75 L 111.683594 133.75 L 111.683594 137.433594 L 115.378906 137.433594 Z M 122.90625 127.308594 L 119.222656 127.308594 L 119.222656 131.007812 L 122.90625 131.007812 Z M 122.90625 127.308594 " fill-opacity="1" fill-rule="evenodd"/><g clip-path="url(#d7e8a78cf3)"><path fill="#ffffff" d="M 144.933594 110.3125 L 135.984375 110.3125 L 135.984375 119.261719 L 144.933594 119.261719 Z M 144.933594 110.3125 " fill-opacity="1" fill-rule="evenodd"/></g><path fill="#ffffff" d="M 132.453125 117.460938 L 126.804688 117.460938 L 126.804688 123.117188 L 132.453125 123.117188 Z M 132.453125 117.460938 " fill-opacity="1" fill-rule="evenodd"/><path fill="#ffffff" d="M 143.132812 131.273438 L 137.472656 131.273438 L 137.472656 136.933594 L 143.132812 136.933594 Z M 143.132812 131.273438 " fill-opacity="1" fill-rule="evenodd"/><g clip-path="url(#ca8f736016)"><path fill="#ffffff" d="M 134.03125 102.488281 L 130.023438 102.488281 L 130.023438 106.496094 L 134.03125 106.496094 Z M 134.03125 102.488281 " fill-opacity="1" fill-rule="evenodd"/></g><path fill="#ffffff" d="M 125.824219 107.648438 L 121.1875 107.648438 L 121.1875 112.277344 L 125.824219 112.277344 Z M 125.824219 107.648438 " fill-opacity="1" fill-rule="evenodd"/><path fill="#ffffff" d="M 139.847656 123.09375 L 135.839844 123.09375 L 135.839844 127.085938 L 139.847656 127.085938 Z M 139.847656 123.09375 " fill-opacity="1" fill-rule="evenodd"/><path fill="#ffffff" d="M 121.085938 118.773438 L 118.042969 118.773438 L 118.042969 121.816406 L 121.085938 121.816406 Z M 121.085938 118.773438 " fill-opacity="1" fill-rule="evenodd"/><path fill="#ffffff" d="M 134.375 131.953125 L 126.757812 131.953125 L 126.757812 139.566406 L 134.375 139.566406 Z M 134.375 131.953125 " fill-opacity="1" fill-rule="evenodd"/><path fill="#ffffff" d="M 83.515625 196.25 L 86.902344 196.25 L 86.902344 199.316406 C 88.105469 199.9375 89.46875 200.292969 90.910156 200.292969 C 95.742188 200.292969 99.703125 196.332031 99.703125 191.503906 L 99.703125 130.175781 C 99.703125 125.347656 95.742188 121.382812 90.910156 121.382812 C 86.28125 121.382812 82.460938 125.011719 82.140625 129.554688 C 81.097656 129.199219 79.972656 129 78.820312 129 C 73.226562 129 68.683594 133.539062 68.683594 139.125 C 68.683594 140.148438 68.839844 141.121094 69.117188 142.054688 C 63.691406 144.042969 59.804688 149.273438 59.804688 155.390625 C 59.804688 158.921875 61.09375 162.152344 63.222656 164.636719 C 62.15625 166.300781 61.546875 168.289062 61.546875 170.421875 C 61.546875 175.28125 64.757812 179.390625 69.183594 180.746094 L 77.519531 180.746094 L 77.519531 191.425781 L 74.15625 191.425781 C 77.667969 196.453125 82.050781 196.195312 83.515625 196.25 Z M 84.117188 176.035156 L 89.925781 176.035156 L 89.925781 170.21875 L 84.117188 170.21875 Z M 72.804688 177.046875 L 78.621094 177.046875 L 78.621094 171.238281 L 72.804688 171.238281 Z M 81.796875 182.972656 L 85.484375 182.972656 L 85.484375 179.289062 L 81.796875 179.289062 Z M 87.371094 187.925781 L 91.066406 187.925781 L 91.066406 184.242188 L 87.371094 184.242188 Z M 79.832031 194.367188 L 83.527344 194.367188 L 83.527344 190.667969 L 79.832031 190.667969 Z M 79.832031 194.367188 " fill-opacity="1" fill-rule="evenodd"/><g clip-path="url(#518cede2e7)"><path fill="#ffffff" d="M 66.765625 202.414062 L 57.804688 202.414062 L 57.804688 211.363281 L 66.765625 211.363281 Z M 66.765625 202.414062 " fill-opacity="1" fill-rule="evenodd"/></g><path fill="#ffffff" d="M 75.945312 198.558594 L 70.296875 198.558594 L 70.296875 204.214844 L 75.945312 204.214844 Z M 75.945312 198.558594 " fill-opacity="1" fill-rule="evenodd"/><path fill="#ffffff" d="M 65.269531 184.75 L 59.617188 184.75 L 59.617188 190.402344 L 65.269531 190.402344 Z M 65.269531 184.75 " fill-opacity="1" fill-rule="evenodd"/><g clip-path="url(#6ef4d5868e)"><path fill="#ffffff" d="M 72.714844 215.179688 L 68.707031 215.179688 L 68.707031 219.1875 L 72.714844 219.1875 Z M 72.714844 215.179688 " fill-opacity="1" fill-rule="evenodd"/></g><path fill="#ffffff" d="M 81.5625 209.398438 L 76.921875 209.398438 L 76.921875 214.023438 L 81.5625 214.023438 Z M 81.5625 209.398438 " fill-opacity="1" fill-rule="evenodd"/><path fill="#ffffff" d="M 66.898438 194.585938 L 62.902344 194.585938 L 62.902344 198.582031 L 66.898438 198.582031 Z M 66.898438 194.585938 " fill-opacity="1" fill-rule="evenodd"/><path fill="#ffffff" d="M 84.707031 199.859375 L 81.664062 199.859375 L 81.664062 202.902344 L 84.707031 202.902344 Z M 84.707031 199.859375 " fill-opacity="1" fill-rule="evenodd"/><path fill="#ffffff" d="M 75.980469 182.109375 L 68.375 182.109375 L 68.375 189.722656 L 75.980469 189.722656 Z M 75.980469 182.109375 " fill-opacity="1" fill-rule="evenodd"/><g fill="#ffffff" fill-opacity="1"><g transform="translate(157.274848, 163.31362)"><g><path d="M 11.109375 0.5 C 9.210938 0.5 7.539062 0.15625 6.09375 -0.53125 C 4.644531 -1.21875 3.507812 -2.203125 2.6875 -3.484375 C 1.863281 -4.773438 1.453125 -6.3125 1.453125 -8.09375 L 6.90625 -8.09375 C 6.90625 -6.875 7.328125 -5.972656 8.171875 -5.390625 C 9.015625 -4.816406 9.984375 -4.53125 11.078125 -4.53125 C 11.765625 -4.53125 12.410156 -4.640625 13.015625 -4.859375 C 13.617188 -5.085938 14.117188 -5.421875 14.515625 -5.859375 C 14.910156 -6.296875 15.109375 -6.828125 15.109375 -7.453125 C 15.109375 -8.085938 14.878906 -8.585938 14.421875 -8.953125 C 13.972656 -9.328125 13.367188 -9.628906 12.609375 -9.859375 C 11.847656 -10.097656 11.019531 -10.328125 10.125 -10.546875 C 9.195312 -10.753906 8.242188 -11.015625 7.265625 -11.328125 C 6.296875 -11.640625 5.394531 -12.050781 4.5625 -12.5625 C 3.726562 -13.070312 3.0625 -13.757812 2.5625 -14.625 C 2.0625 -15.488281 1.8125 -16.585938 1.8125 -17.921875 C 1.8125 -20.316406 2.625 -22.160156 4.25 -23.453125 C 5.882812 -24.753906 8.085938 -25.40625 10.859375 -25.40625 C 13.710938 -25.40625 15.921875 -24.6875 17.484375 -23.25 C 19.054688 -21.8125 19.84375 -19.859375 19.84375 -17.390625 L 14.5 -17.390625 C 14.5 -18.453125 14.117188 -19.238281 13.359375 -19.75 C 12.597656 -20.257812 11.71875 -20.515625 10.71875 -20.515625 C 9.84375 -20.515625 9.035156 -20.320312 8.296875 -19.9375 C 7.566406 -19.5625 7.203125 -18.972656 7.203125 -18.171875 C 7.203125 -17.578125 7.421875 -17.109375 7.859375 -16.765625 C 8.296875 -16.421875 8.875 -16.132812 9.59375 -15.90625 C 10.320312 -15.675781 11.125 -15.457031 12 -15.25 C 12.957031 -15.007812 13.929688 -14.726562 14.921875 -14.40625 C 15.921875 -14.082031 16.847656 -13.648438 17.703125 -13.109375 C 18.554688 -12.566406 19.25 -11.84375 19.78125 -10.9375 C 20.320312 -10.03125 20.59375 -8.890625 20.59375 -7.515625 C 20.59375 -5.710938 20.15625 -4.21875 19.28125 -3.03125 C 18.414062 -1.84375 17.269531 -0.957031 15.84375 -0.375 C 14.425781 0.207031 12.847656 0.5 11.109375 0.5 Z M 11.109375 0.5 "/></g></g></g><g fill="#ffffff" fill-opacity="1"><g transform="translate(182.245528, 163.31362)"><g><path d="M 20.0625 -24.9375 L 20.0625 -19.921875 L 13.109375 -19.921875 L 13.109375 0 L 7.6875 0 L 7.6875 -19.921875 L 0.78125 -19.921875 L 0.78125 -24.9375 Z M 20.0625 -24.9375 "/></g></g></g><g fill="#ffffff" fill-opacity="1"><g transform="translate(205.969476, 163.31362)"><g><path d="M 12.890625 0.53125 C 10.921875 0.53125 9.164062 0.109375 7.625 -0.734375 C 6.082031 -1.578125 4.859375 -2.738281 3.953125 -4.21875 C 3.046875 -5.707031 2.59375 -7.425781 2.59375 -9.375 L 2.59375 -24.9375 L 8.015625 -24.9375 L 8.015625 -9.625 C 8.015625 -8.070312 8.472656 -6.835938 9.390625 -5.921875 C 10.304688 -5.015625 11.472656 -4.5625 12.890625 -4.5625 C 14.335938 -4.5625 15.519531 -5.015625 16.4375 -5.921875 C 17.351562 -6.835938 17.8125 -8.070312 17.8125 -9.625 L 17.8125 -24.9375 L 23.1875 -24.9375 L 23.1875 -9.375 C 23.1875 -7.425781 22.738281 -5.707031 21.84375 -4.21875 C 20.957031 -2.738281 19.738281 -1.578125 18.1875 -0.734375 C 16.632812 0.109375 14.867188 0.53125 12.890625 0.53125 Z M 12.890625 0.53125 "/></g></g></g><g fill="#ffffff" fill-opacity="1"><g transform="translate(234.680351, 163.31362)"><g><path d="M 12.296875 -24.9375 C 14.117188 -24.9375 15.800781 -24.625 17.34375 -24 C 18.894531 -23.382812 20.234375 -22.519531 21.359375 -21.40625 C 22.484375 -20.289062 23.359375 -18.976562 23.984375 -17.46875 C 24.617188 -15.96875 24.9375 -14.3125 24.9375 -12.5 C 24.9375 -10.695312 24.617188 -9.035156 23.984375 -7.515625 C 23.359375 -5.992188 22.484375 -4.671875 21.359375 -3.546875 C 20.234375 -2.421875 18.894531 -1.546875 17.34375 -0.921875 C 15.800781 -0.304688 14.117188 0 12.296875 0 L 2.84375 0 L 2.84375 -24.9375 Z M 12.140625 -5.015625 C 13.566406 -5.015625 14.828125 -5.335938 15.921875 -5.984375 C 17.015625 -6.628906 17.867188 -7.515625 18.484375 -8.640625 C 19.109375 -9.765625 19.421875 -11.050781 19.421875 -12.5 C 19.421875 -13.945312 19.109375 -15.226562 18.484375 -16.34375 C 17.867188 -17.46875 17.015625 -18.34375 15.921875 -18.96875 C 14.828125 -19.601562 13.566406 -19.921875 12.140625 -19.921875 L 8.265625 -19.921875 L 8.265625 -5.015625 Z M 12.140625 -5.015625 "/></g></g></g><g fill="#ffffff" fill-opacity="1"><g transform="translate(263.996785, 163.31362)"><g><path d="M 23.625 -24.9375 L 14.859375 -10.078125 L 14.859375 0 L 9.296875 0 L 9.296875 -10.125 L 0.609375 -24.9375 L 6.34375 -24.9375 L 12.109375 -14.96875 L 17.890625 -24.9375 Z M 23.625 -24.9375 "/></g></g></g><g fill="#ffffff" fill-opacity="1"><g transform="translate(159.374219, 183.942703)"><g><path d="M 4.640625 0.140625 C 3.859375 0.140625 3.171875 0 2.578125 -0.28125 C 1.984375 -0.5625 1.519531 -0.957031 1.1875 -1.46875 C 0.863281 -1.988281 0.703125 -2.597656 0.703125 -3.296875 L 2.0625 -3.296875 C 2.0625 -2.628906 2.304688 -2.109375 2.796875 -1.734375 C 3.285156 -1.359375 3.894531 -1.171875 4.625 -1.171875 C 5.070312 -1.171875 5.476562 -1.242188 5.84375 -1.390625 C 6.207031 -1.546875 6.492188 -1.757812 6.703125 -2.03125 C 6.921875 -2.3125 7.03125 -2.640625 7.03125 -3.015625 C 7.03125 -3.441406 6.90625 -3.765625 6.65625 -3.984375 C 6.414062 -4.210938 6.085938 -4.394531 5.671875 -4.53125 C 5.265625 -4.664062 4.832031 -4.785156 4.375 -4.890625 C 3.957031 -4.984375 3.546875 -5.09375 3.140625 -5.21875 C 2.734375 -5.34375 2.359375 -5.507812 2.015625 -5.71875 C 1.679688 -5.925781 1.410156 -6.195312 1.203125 -6.53125 C 1.003906 -6.875 0.90625 -7.3125 0.90625 -7.84375 C 0.90625 -8.769531 1.234375 -9.5 1.890625 -10.03125 C 2.554688 -10.5625 3.4375 -10.828125 4.53125 -10.828125 C 5.644531 -10.828125 6.519531 -10.539062 7.15625 -9.96875 C 7.789062 -9.394531 8.109375 -8.625 8.109375 -7.65625 L 6.78125 -7.65625 C 6.78125 -8.25 6.566406 -8.710938 6.140625 -9.046875 C 5.710938 -9.378906 5.171875 -9.546875 4.515625 -9.546875 C 3.867188 -9.546875 3.328125 -9.398438 2.890625 -9.109375 C 2.460938 -8.816406 2.25 -8.414062 2.25 -7.90625 C 2.25 -7.507812 2.367188 -7.203125 2.609375 -6.984375 C 2.859375 -6.765625 3.175781 -6.59375 3.5625 -6.46875 C 3.957031 -6.34375 4.382812 -6.226562 4.84375 -6.125 C 5.257812 -6.019531 5.675781 -5.898438 6.09375 -5.765625 C 6.519531 -5.640625 6.90625 -5.46875 7.25 -5.25 C 7.601562 -5.039062 7.882812 -4.753906 8.09375 -4.390625 C 8.300781 -4.035156 8.40625 -3.582031 8.40625 -3.03125 C 8.40625 -2.363281 8.238281 -1.789062 7.90625 -1.3125 C 7.582031 -0.84375 7.132812 -0.484375 6.5625 -0.234375 C 5.988281 0.015625 5.347656 0.140625 4.640625 0.140625 Z M 4.640625 0.140625 "/></g></g></g><g fill="#ffffff" fill-opacity="1"><g transform="translate(168.773239, 183.942703)"><g><path d="M 13.921875 0 L 12.5625 0 L 11.171875 -8.34375 L 7.484375 -0.28125 L 7.125 -0.28125 L 3.4375 -8.328125 L 2.046875 0 L 0.671875 0 L 2.46875 -10.6875 L 3.75 -10.6875 L 7.296875 -2.84375 L 10.84375 -10.6875 L 12.15625 -10.6875 Z M 13.921875 0 "/></g></g></g><g fill="#ffffff" fill-opacity="1"><g transform="translate(183.665079, 183.942703)"><g><path d="M 8.9375 0 L 7.859375 -2.5625 L 2.734375 -2.5625 L 1.671875 0 L 0.265625 0 L 4.625 -10.6875 L 5.875 -10.6875 L 10.375 0 Z M 5.28125 -8.84375 L 3.234375 -3.78125 L 7.359375 -3.78125 Z M 5.28125 -8.84375 "/></g></g></g><g fill="#ffffff" fill-opacity="1"><g transform="translate(194.589883, 183.942703)"><g><path d="M 7.671875 0 L 5.234375 -4.1875 L 2.796875 -4.1875 L 2.796875 0 L 1.46875 0 L 1.46875 -10.6875 L 5.515625 -10.6875 C 6.179688 -10.6875 6.773438 -10.546875 7.296875 -10.265625 C 7.828125 -9.984375 8.238281 -9.59375 8.53125 -9.09375 C 8.832031 -8.601562 8.984375 -8.046875 8.984375 -7.421875 C 8.984375 -6.671875 8.765625 -6.019531 8.328125 -5.46875 C 7.898438 -4.914062 7.335938 -4.535156 6.640625 -4.328125 L 9.1875 0 Z M 2.796875 -9.421875 L 2.796875 -5.453125 L 5.453125 -5.453125 C 6.097656 -5.453125 6.625 -5.632812 7.03125 -6 C 7.4375 -6.375 7.640625 -6.851562 7.640625 -7.4375 C 7.640625 -8.007812 7.4375 -8.484375 7.03125 -8.859375 C 6.625 -9.234375 6.097656 -9.421875 5.453125 -9.421875 Z M 2.796875 -9.421875 "/></g></g></g><g fill="#ffffff" fill-opacity="1"><g transform="translate(204.706025, 183.942703)"><g><path d="M 8.171875 -10.6875 L 8.171875 -9.4375 L 4.921875 -9.4375 L 4.921875 0 L 3.578125 0 L 3.578125 -9.4375 L 0.328125 -9.4375 L 0.328125 -10.6875 Z M 8.171875 -10.6875 "/></g></g></g></svg>